<svg xmlns="http://www.w3.org/2000/svg" xmlns:xlink="http://www.w3.org/1999/xlink" width="277" height="277" viewBox="0 0 277 277">
  <defs>
    <filter id="Combined_Shape" x="16" y="16" width="261" height="261" filterUnits="userSpaceOnUse">
      <feOffset dx="8" dy="8" input="SourceAlpha"/>
      <feGaussianBlur stdDeviation="6" result="blur"/>
      <feFlood flood-color="#171934" flood-opacity="0.2"/>
      <feComposite operator="in" in2="blur"/>
      <feComposite in="SourceGraphic"/>
    </filter>
    <filter id="Combined_Shape-2" x="0" y="0" width="261" height="261" filterUnits="userSpaceOnUse">
      <feOffset dx="-8" dy="-8" input="SourceAlpha"/>
      <feGaussianBlur stdDeviation="6" result="blur-2"/>
      <feFlood flood-color="#fff" flood-opacity="0.502"/>
      <feComposite operator="in" in2="blur-2"/>
    </filter>
    <radialGradient id="radial-gradient" cx="0.5" cy="0.5" r="0.5" gradientUnits="objectBoundingBox">
      <stop offset="0" stop-color="#fc265d"/>
      <stop offset="0.912" stop-color="#fc265d"/>
      <stop offset="1" stop-color="#fc265d"/>
    </radialGradient>
    <filter id="Oval_Copy_9" x="79" y="79" width="120" height="120" filterUnits="userSpaceOnUse">
      <feOffset dx="8" dy="8" input="SourceAlpha"/>
      <feGaussianBlur stdDeviation="6" result="blur-3"/>
      <feFlood flood-color="#fff" flood-opacity="0.502" result="color"/>
      <feComposite operator="out" in="SourceGraphic" in2="blur-3"/>
      <feComposite operator="in" in="color"/>
      <feComposite operator="in" in2="SourceGraphic"/>
    </filter>
    <filter id="Oval_Copy_9-2" x="79" y="79" width="120" height="120" filterUnits="userSpaceOnUse">
      <feOffset dx="8" dy="8" input="SourceAlpha"/>
      <feGaussianBlur stdDeviation="6" result="blur-4"/>
      <feFlood flood-color="#171934" flood-opacity="0.2" result="color-2"/>
      <feComposite operator="out" in="SourceGraphic" in2="blur-4"/>
      <feComposite operator="in" in="color-2"/>
      <feComposite operator="in" in2="SourceGraphic"/>
    </filter>
  </defs>
  <g id="Graph" transform="translate(26 26)">
    <g id="Combined_Shape-3" data-name="Combined Shape">
      <g transform="matrix(1, 0, 0, 1, -26, -26)" filter="url(#Combined_Shape)">
        <path id="Combined_Shape-4" data-name="Combined Shape" d="M112.5,225a113.332,113.332,0,0,1-22.673-2.286A111.883,111.883,0,0,1,49.6,205.787a112.828,112.828,0,0,1-40.759-49.5,111.936,111.936,0,0,1-6.555-21.117,113.6,113.6,0,0,1,0-45.346A111.883,111.883,0,0,1,19.213,49.6,112.828,112.828,0,0,1,68.71,8.841,111.935,111.935,0,0,1,89.827,2.286a113.6,113.6,0,0,1,45.346,0A111.883,111.883,0,0,1,175.4,19.213a112.828,112.828,0,0,1,40.759,49.5,111.934,111.934,0,0,1,6.555,21.117,113.6,113.6,0,0,1,0,45.346A111.883,111.883,0,0,1,205.787,175.4a112.828,112.828,0,0,1-49.5,40.759,111.934,111.934,0,0,1-21.117,6.555A113.332,113.332,0,0,1,112.5,225Zm0-213a101.244,101.244,0,0,0-20.254,2.042A99.95,99.95,0,0,0,56.309,29.164,100.793,100.793,0,0,0,19.9,73.381a100,100,0,0,0-5.856,18.865,101.481,101.481,0,0,0,0,40.509,99.95,99.95,0,0,0,15.122,35.936A100.793,100.793,0,0,0,73.381,205.1a100,100,0,0,0,18.865,5.856,101.48,101.48,0,0,0,40.509,0,99.95,99.95,0,0,0,35.936-15.122A100.793,100.793,0,0,0,205.1,151.619a100,100,0,0,0,5.856-18.865,101.48,101.48,0,0,0,0-40.509,99.95,99.95,0,0,0-15.122-35.936A100.793,100.793,0,0,0,151.619,19.9a100,100,0,0,0-18.865-5.856A101.244,101.244,0,0,0,112.5,12Z" transform="translate(26 26)" fill="#f5f5fa"/>
      </g>
      <g transform="matrix(1, 0, 0, 1, -26, -26)" filter="url(#Combined_Shape-2)">
        <path id="Combined_Shape-5" data-name="Combined Shape" d="M112.5,225a113.332,113.332,0,0,1-22.673-2.286A111.883,111.883,0,0,1,49.6,205.787a112.828,112.828,0,0,1-40.759-49.5,111.936,111.936,0,0,1-6.555-21.117,113.6,113.6,0,0,1,0-45.346A111.883,111.883,0,0,1,19.213,49.6,112.828,112.828,0,0,1,68.71,8.841,111.935,111.935,0,0,1,89.827,2.286a113.6,113.6,0,0,1,45.346,0A111.883,111.883,0,0,1,175.4,19.213a112.828,112.828,0,0,1,40.759,49.5,111.934,111.934,0,0,1,6.555,21.117,113.6,113.6,0,0,1,0,45.346A111.883,111.883,0,0,1,205.787,175.4a112.828,112.828,0,0,1-49.5,40.759,111.934,111.934,0,0,1-21.117,6.555A113.332,113.332,0,0,1,112.5,225Zm0-213a101.244,101.244,0,0,0-20.254,2.042A99.95,99.95,0,0,0,56.309,29.164,100.793,100.793,0,0,0,19.9,73.381a100,100,0,0,0-5.856,18.865,101.481,101.481,0,0,0,0,40.509,99.95,99.95,0,0,0,15.122,35.936A100.793,100.793,0,0,0,73.381,205.1a100,100,0,0,0,18.865,5.856,101.48,101.48,0,0,0,40.509,0,99.95,99.95,0,0,0,35.936-15.122A100.793,100.793,0,0,0,205.1,151.619a100,100,0,0,0,5.856-18.865,101.48,101.48,0,0,0,0-40.509,99.95,99.95,0,0,0-15.122-35.936A100.793,100.793,0,0,0,151.619,19.9a100,100,0,0,0-18.865-5.856A101.244,101.244,0,0,0,112.5,12Z" transform="translate(26 26)" fill="#fff"/>
      </g>
      <path id="Combined_Shape-6" data-name="Combined Shape" d="M112.5,225a113.332,113.332,0,0,1-22.673-2.286A111.883,111.883,0,0,1,49.6,205.787a112.828,112.828,0,0,1-40.759-49.5,111.936,111.936,0,0,1-6.555-21.117,113.6,113.6,0,0,1,0-45.346A111.883,111.883,0,0,1,19.213,49.6,112.828,112.828,0,0,1,68.71,8.841,111.935,111.935,0,0,1,89.827,2.286a113.6,113.6,0,0,1,45.346,0A111.883,111.883,0,0,1,175.4,19.213a112.828,112.828,0,0,1,40.759,49.5,111.934,111.934,0,0,1,6.555,21.117,113.6,113.6,0,0,1,0,45.346A111.883,111.883,0,0,1,205.787,175.4a112.828,112.828,0,0,1-49.5,40.759,111.934,111.934,0,0,1-21.117,6.555A113.332,113.332,0,0,1,112.5,225Zm0-213a101.244,101.244,0,0,0-20.254,2.042A99.95,99.95,0,0,0,56.309,29.164,100.793,100.793,0,0,0,19.9,73.381a100,100,0,0,0-5.856,18.865,101.481,101.481,0,0,0,0,40.509,99.95,99.95,0,0,0,15.122,35.936A100.793,100.793,0,0,0,73.381,205.1a100,100,0,0,0,18.865,5.856,101.48,101.48,0,0,0,40.509,0,99.95,99.95,0,0,0,35.936-15.122A100.793,100.793,0,0,0,205.1,151.619a100,100,0,0,0,5.856-18.865,101.48,101.48,0,0,0,0-40.509,99.95,99.95,0,0,0-15.122-35.936A100.793,100.793,0,0,0,151.619,19.9a100,100,0,0,0-18.865-5.856A101.244,101.244,0,0,0,112.5,12Z" fill="none"/>
    </g>
    <path id="Combined_Shape_Copy_3" data-name="Combined Shape Copy 3" d="M80.246,198.958A99.924,99.924,0,0,1,44.31,183.836,100.8,100.8,0,0,1,7.9,139.619a100,100,0,0,1-5.855-18.865,101.463,101.463,0,0,1,0-40.508A99.924,99.924,0,0,1,17.164,44.31,100.8,100.8,0,0,1,61.381,7.9,100.021,100.021,0,0,1,80.246,2.042a101.463,101.463,0,0,1,40.508,0A99.924,99.924,0,0,1,156.69,17.164,100.8,100.8,0,0,1,193.1,61.381a100.022,100.022,0,0,1,5.855,18.865A101.21,101.21,0,0,1,201,100.5q0,.4,0,.795a14,14,0,0,1-28-.3,71.663,71.663,0,0,0-12.3-40.256,72.211,72.211,0,0,0-31.677-26.086A71.9,71.9,0,0,0,60.744,41.3,72.211,72.211,0,0,0,34.658,72.974,71.9,71.9,0,0,0,41.3,141.256a72.211,72.211,0,0,0,31.677,26.086A71.545,71.545,0,0,0,101,173a14,14,0,0,1,.362,28q-.431,0-.861,0A101.21,101.21,0,0,1,80.246,198.958Z" transform="translate(12 12)" fill="#ff645a"/>
    <path id="Combined_Shape_Copy_4" data-name="Combined Shape Copy 4" d="M80.246,198.958A99.924,99.924,0,0,1,44.31,183.836,100.8,100.8,0,0,1,7.9,139.619a100,100,0,0,1-5.855-18.865,101.463,101.463,0,0,1,0-40.508A99.924,99.924,0,0,1,17.164,44.31,100.8,100.8,0,0,1,61.381,7.9,100.021,100.021,0,0,1,80.246,2.042a101.463,101.463,0,0,1,40.508,0A99.924,99.924,0,0,1,156.69,17.164,100.8,100.8,0,0,1,193.1,61.381a100.022,100.022,0,0,1,5.855,18.865A101.21,101.21,0,0,1,201,100.5q0,.4,0,.795a14,14,0,0,1-28-.3,71.663,71.663,0,0,0-12.3-40.256,72.211,72.211,0,0,0-31.677-26.086A71.9,71.9,0,0,0,60.744,41.3,72.211,72.211,0,0,0,34.658,72.974,71.9,71.9,0,0,0,41.3,141.256a72.211,72.211,0,0,0,31.677,26.086A71.545,71.545,0,0,0,101,173a14,14,0,0,1,.362,28q-.431,0-.861,0A101.21,101.21,0,0,1,80.246,198.958Z" transform="translate(213 213) rotate(180)" fill="url(#radial-gradient)"/>
    <path id="Combined_Shape-7" data-name="Combined Shape" d="M0,50V16.7A100.11,100.11,0,0,1,55.5,0c.265,0,.53,0,.8,0A14,14,0,0,1,56,28,71.663,71.663,0,0,0,15.744,40.3,72.52,72.52,0,0,0,5.088,49.088q-.452.452-.9.913Z" transform="translate(57 12)" fill="#ff645a"/>
    <g id="Oval">
      <circle id="Oval-2" data-name="Oval" cx="72" cy="72" r="72" transform="translate(41 41)" fill="#f5f5fa"/>
      <circle id="Oval-3" data-name="Oval" cx="72" cy="72" r="72" transform="translate(41 41)" fill="none"/>
      <circle id="Oval-4" data-name="Oval" cx="72" cy="72" r="72" transform="translate(41 41)" fill="none"/>
    </g>
    <g id="Oval_Copy_9-3" data-name="Oval Copy 9">
      <g data-type="innerShadowGroup">
        <circle id="Oval_Copy_9-4" data-name="Oval Copy 9" cx="60" cy="60" r="60" transform="translate(53 53)" fill="#f5f5fa"/>
        <g transform="matrix(1, 0, 0, 1, -26, -26)" filter="url(#Oval_Copy_9)">
          <circle id="Oval_Copy_9-5" data-name="Oval Copy 9" cx="60" cy="60" r="60" transform="translate(79 79)" fill="#fff"/>
        </g>
      </g>
      <g transform="matrix(1, 0, 0, 1, -26, -26)" filter="url(#Oval_Copy_9-2)">
        <circle id="Oval_Copy_9-6" data-name="Oval Copy 9" cx="60" cy="60" r="60" transform="translate(79 79)" fill="#fff"/>
      </g>
      <circle id="Oval_Copy_9-7" data-name="Oval Copy 9" cx="60" cy="60" r="60" transform="translate(53 53)" fill="none"/>
    </g>
  </g>
</svg>
